<svg version="1.0" id="logosvg" class="mainlogo" xmlns="http://www.w3.org/2000/svg" xmlns:xlink="http://www.w3.org/1999/xlink" x="0px" y="0px" viewBox="0 0 387.46 161.19" style="enable-background:new 0 0 387.46 161.19;fill:#c19b77;" xml:space="preserve">
<g>
	<path class="logocolor" d="M75.49,83.67c0,24.55-15.87,39.75-37.08,39.75c-9.52,0-16.7-3.34-22.38-8.18c-3.01,4.01-7.52,8.52-7.52,5.85
		V12.36c0-5.68-1.5-8.02-8.52-8.02v-1.5L16.7,0v55.61c4.84-8.02,15.03-12.36,24.22-12.36C66.64,43.25,75.49,64.13,75.49,83.67z
		 M64.46,86.84c0-25.55-11.19-39.75-26.72-39.75c-12.86,0-21.04,8.52-21.04,22.21V98.7c0,13.53,8.02,23.21,21.04,23.21
		C47.76,121.92,64.46,114.57,64.46,86.84z"></path>
	<path class="logocolor" d="M153.31,112.06l1.34,0.5c-0.83,4.84-4.34,10.86-11.36,10.86c0,0-11.52,0.83-11.52-14.53
		c-2.17,8.68-11.69,14.53-23.21,14.53c0,0-18.87,0.17-18.87-17.37c0-15.2,14.2-20.88,42.09-28.22v-9.02
		c0-17.03-7.52-27.72-22.71-21.38c-7.68,3.67-9.02,7.35-8.18,7.52c1.5,0.33,2.84,0.84,4.01,2.17c2.17,2.5,1.84,6.35-0.67,8.68
		c-2.5,2.17-6.18,2-8.35-0.67c-1.5-1.84-2-4.34-1.17-6.35c0.83-2,4.18-7.52,13.03-12.36c6.85-3.34,14.7-3.17,14.7-3.17
		c14.53,0,18.37,13.53,18.37,33.4v31.9c0,0,0,9.35,7.01,9.35C147.8,117.91,152.14,117.91,153.31,112.06z M131.77,79.33
		c-22.21,5.51-33.74,12.36-33.74,24.05c0,9.69,6.01,15.2,15.53,15.2c11.86,0,16.37-8.18,18.2-12.19V79.33z"></path>
	<path class="logocolor" d="M177.7,111.23c0,9.19,0.83,7.68,6.85,9.19v1.5h-21.88v-1.5c6.35-1.84,6.68-0.67,6.68-9.19v-98.7
		c0-5.85-1.34-8.18-8.35-8.18v-1.5L177.7,0V111.23z"></path>
	<path class="logocolor" d="M304.12,120.58v1.34h-21.71v-1.34c6.35-1.84,6.68-0.83,6.68-9.35V71.81c0-14.7-4.51-24.05-18.2-24.05
		c-10.69,0-16.03,9.85-18.2,15.2c0.33,2.34,0.5,5.18,0.5,8.18v40.08c0,9.19,1,7.85,6.85,9.35v1.34h-21.71v-1.34
		c6.35-1.84,6.68-0.83,6.68-9.35V71.81c0-14.7-4.34-24.05-18.2-24.05c-10.69,0-15.87,9.69-18.2,15.03v48.43
		c0,9.19,0.83,7.68,6.85,9.19v1.5h-21.88v-1.5c6.35-1.84,6.68-0.67,6.68-9.19V55.78c0-5.85-1.34-8.35-8.35-8.35v-1.34l16.7-2.84
		v17.03c2.84-9.35,11.52-17.03,22.04-17.03c11.69,0,19.37,5.18,21.71,18.04c2.67-9.69,11.36-18.04,22.21-18.04
		c14.2,0,22.71,7.85,22.71,27.89v40.08C297.27,120.41,298.27,119.08,304.12,120.58z"></path>
	<path class="logocolor" d="M387.46,44.76v1.34c-8.18,0-12.02,2.5-20.88,27.39l-26.22,73.98c-2.51,7.85-6.35,11.02-8.02,12.36
		s-4.84,1.84-7.01,0.83c-3.17-1.5-4.34-5.01-3.17-8.02c1.5-3.17,5.01-4.51,8.02-3.17c1.67,0.67,2.84,2.34,3.17,3.67
		c0.67,2.84,3.84-0.67,5.84-6.18l8.68-25.05c-29.56-64.13-30.9-65.47-30.9-65.47c-4.01-8.68-10.35-10.02-13.03-10.35v-1.34h29.73
		v1.34c-12.86,0-5.68,14.03-5.68,14.03l23.72,51.27l13.36-38.24c0,0,9.85-27.39-9.52-27.06v-1.34H387.46z"></path>
</g>
<polygon class="logocolor" points="219.38,160.94 219.38,152.76 211.89,152.76 211.89,160.94 209.32,160.94 209.32,143.96 211.89,143.96 
	211.89,150.39 219.38,150.39 219.38,143.96 221.95,143.96 221.95,160.94 "></polygon>
<path class="logocolor" d="M237.48,161.36c-1.21,0-2.37-0.22-3.46-0.66c-1.09-0.44-2.07-1.09-2.93-1.93c-0.86-0.85-1.52-1.82-1.97-2.88
	c-0.45-1.06-0.68-2.21-0.68-3.4c0-1.2,0.23-2.36,0.68-3.43c0.45-1.07,1.11-2.04,1.97-2.89c0.84-0.84,1.82-1.48,2.91-1.91
	c1.08-0.43,2.25-0.65,3.48-0.65c1.24,0,2.41,0.22,3.5,0.65c1.09,0.43,2.07,1.07,2.91,1.9c0.86,0.85,1.52,1.83,1.97,2.9
	c0.45,1.07,0.68,2.22,0.68,3.43c0,1.19-0.23,2.34-0.68,3.41c-0.46,1.07-1.12,2.04-1.97,2.87c-0.87,0.84-1.86,1.49-2.95,1.93
	C239.85,161.14,238.69,161.36,237.48,161.36z M237.48,146.03c-0.86,0-1.68,0.16-2.44,0.48c-0.76,0.32-1.46,0.79-2.07,1.4
	c-0.6,0.62-1.07,1.33-1.39,2.1c-0.32,0.77-0.48,1.6-0.48,2.48c0,0.88,0.16,1.71,0.48,2.49c0.32,0.78,0.79,1.48,1.4,2.11
	c0.61,0.61,1.29,1.08,2.04,1.39c0.75,0.31,1.58,0.47,2.46,0.47c0.86,0,1.68-0.16,2.45-0.48c0.77-0.32,1.47-0.79,2.08-1.39
	c0.6-0.61,1.06-1.32,1.38-2.1s0.48-1.62,0.48-2.49c0-0.87-0.16-1.71-0.48-2.49c-0.32-0.78-0.79-1.48-1.4-2.11
	c-0.6-0.6-1.29-1.07-2.06-1.39C239.18,146.19,238.35,146.03,237.48,146.03z"></path>
<polygon class="logocolor" points="254.62,160.94 254.62,146.45 250.26,146.45 250.26,143.96 261.57,143.96 261.57,146.45 257.19,146.45 
	257.19,160.94 "></polygon>
<polygon class="logocolor" points="267.26,160.94 267.26,143.96 276.24,143.96 276.24,146.45 269.83,146.45 269.83,150.27 276.24,150.27 
	276.24,152.76 269.83,152.76 269.83,158.45 276.24,158.45 276.24,160.94 "></polygon>
<polygon class="logocolor" points="283.06,160.94 283.06,143.96 285.64,143.96 285.64,158.45 291.07,158.45 291.07,160.94 "></polygon>
<path class="logocolor" d="M300.41,161.36c-1.15,0-2.16-0.29-2.99-0.88c-0.83-0.58-1.48-1.44-1.94-2.56l-0.19-0.47l2.3-1.23l0.2,0.67
	c0.2,0.67,0.52,1.16,1,1.52c0.47,0.36,1.02,0.53,1.7,0.53c0.85,0,1.48-0.23,1.94-0.71c0.46-0.49,0.69-1.16,0.69-2.07
	c0-0.64-0.15-1.16-0.45-1.56c-0.23-0.3-0.8-0.82-2.25-1.59c-1.68-0.89-2.77-1.66-3.35-2.37c-0.61-0.74-0.92-1.64-0.92-2.68
	c0-1.28,0.45-2.35,1.32-3.16c0.87-0.8,1.99-1.21,3.35-1.21c0.89,0,1.68,0.19,2.35,0.58c0.68,0.39,1.23,0.97,1.65,1.73l0.26,0.48
	l-2.1,1.27l-0.28-0.54c-0.18-0.36-0.43-0.62-0.75-0.8c-0.33-0.19-0.75-0.28-1.22-0.28c-0.63,0-1.11,0.17-1.46,0.52
	c-0.35,0.35-0.52,0.83-0.52,1.45c0,0.88,0.82,1.75,2.44,2.6c0.33,0.17,0.59,0.31,0.76,0.4c1.45,0.8,2.39,1.54,2.9,2.28
	c0.52,0.75,0.78,1.73,0.78,2.89c0,1.57-0.47,2.84-1.41,3.78C303.27,160.88,301.99,161.36,300.41,161.36z"></path>
</svg>