<svg version="1.0" xmlns="http://www.w3.org/2000/svg" viewBox="0 0 76 124" style="fill:#c19b77;" xml:space="preserve">
  <path d="M75.49,83.67c0,24.55-15.87,39.75-37.08,39.75c-9.52,0-16.7-3.34-22.38-8.18c-3.01,4.01-7.52,8.52-7.52,5.85
    V12.36c0-5.68-1.5-8.02-8.52-8.02v-1.5L16.7,0v55.61c4.84-8.02,15.03-12.36,24.22-12.36C66.64,43.25,75.49,64.13,75.49,83.67z
    M64.46,86.84c0-25.55-11.19-39.75-26.72-39.75c-12.86,0-21.04,8.52-21.04,22.21V98.7c0,13.53,8.02,23.21,21.04,23.21
    C47.76,121.92,64.46,114.57,64.46,86.84z"/>
</svg>
